<svg width="554" height="112" viewBox="0 0 554 112" fill="none" xmlns="http://www.w3.org/2000/svg">
<path d="M0.873047 82V79.9L10.073 78.4V5.59999L0.873047 4.19999V2H30.273V4.19999L21.073 5.59999V38.4H59.0731V5.59999L49.7731 4.19999V2H79.3731V4.19999L70.0731 5.59999V78.4L79.3731 79.9V82H49.7731V79.9L59.0731 78.4V40.9H21.073V78.4L30.273 79.9V82H0.873047ZM96.8965 18.6C95.0298 18.6 93.4298 17.9667 92.0965 16.7C90.7632 15.3667 90.0965 13.7667 90.0965 11.9C90.0965 10.0333 90.7298 8.46666 91.9965 7.2C93.3298 5.93333 94.9632 5.3 96.8965 5.3C98.6965 5.3 100.23 5.93333 101.496 7.2C102.763 8.46666 103.396 10.0333 103.396 11.9C103.396 13.7667 102.763 15.3667 101.496 16.7C100.23 17.9667 98.6965 18.6 96.8965 18.6ZM86.5965 111.2C82.8632 111.2 79.8965 110.333 77.6965 108.6C75.4965 106.933 74.3965 104.667 74.3965 101.8C74.3965 100 74.8965 98.5333 75.8965 97.4C76.8965 96.2667 78.2298 95.7 79.8965 95.7C81.4298 95.7 82.7632 96.2667 83.8965 97.4C85.0298 98.5333 85.5965 99.8667 85.5965 101.4C83.5298 102 82.4965 103.3 82.4965 105.3C82.4965 106.233 82.8632 107.067 83.5965 107.8C84.3965 108.6 85.3965 109 86.5965 109C88.9965 109 90.6632 107.833 91.5965 105.5C92.5965 103.233 93.0965 99.2333 93.0965 93.5V33.2L85.5965 32.2V30.2H103.096V92.4C103.096 98.2 101.83 102.767 99.2965 106.1C96.8298 109.5 92.5965 111.2 86.5965 111.2ZM130.429 83C126.162 83 122.662 81.9 119.929 79.7C117.195 77.4333 115.829 74.1 115.829 69.7C115.829 63.4333 118.462 59 123.729 56.4C128.995 53.7333 135.095 52.4 142.029 52.4H148.729V44.7C148.729 41.2333 148.329 38.5667 147.529 36.7C146.795 34.7667 145.629 33.4333 144.029 32.7C142.429 31.9 140.262 31.5 137.529 31.5C134.395 31.5 132.062 32.1333 130.529 33.4C128.995 34.6 128.229 36.2333 128.229 38.3C128.229 40.2333 129.162 41.5 131.029 42.1C131.029 43.7667 130.395 45.2333 129.129 46.5C127.862 47.7667 126.362 48.4 124.629 48.4C122.762 48.4 121.262 47.9 120.129 46.9C118.995 45.8333 118.429 44.2333 118.429 42.1C118.429 38.2333 120.362 35.1333 124.229 32.8C128.095 30.4667 132.929 29.3 138.729 29.3C152.062 29.3 158.729 35.1 158.729 46.7V75.3C158.729 76.7667 159.029 77.9 159.629 78.7C160.295 79.4333 161.229 79.8 162.429 79.8C163.562 79.8 164.462 79.4333 165.129 78.7C165.795 77.9 166.129 76.8333 166.129 75.5H168.229C168.229 77.8333 167.462 79.6667 165.929 81C164.462 82.3333 162.395 83 159.729 83C156.662 83 154.062 82.1333 151.929 80.4C149.862 78.6 148.795 75.8333 148.729 72.1C147.129 75.5 144.662 78.1667 141.329 80.1C138.062 82.0333 134.429 83 130.429 83ZM135.929 78.6C137.729 78.6 139.562 78.0667 141.429 77C143.362 75.9333 144.995 74.4 146.329 72.4C147.662 70.3333 148.462 67.8667 148.729 65V54.6H142.029C136.562 54.6 132.462 55.8333 129.729 58.3C127.062 60.7 125.729 64.1 125.729 68.5C125.729 72.1667 126.595 74.7667 128.329 76.3C130.062 77.8333 132.595 78.6 135.929 78.6ZM129.029 21C127.362 21 125.929 20.4333 124.729 19.3C123.595 18.1667 123.029 16.7667 123.029 15.1C123.029 13.4333 123.595 12.0333 124.729 10.9C125.929 9.76666 127.362 9.2 129.029 9.2C130.695 9.2 132.095 9.76666 133.229 10.9C134.362 12.0333 134.929 13.4333 134.929 15.1C134.929 16.7667 134.362 18.1667 133.229 19.3C132.095 20.4333 130.695 21 129.029 21ZM147.529 21C145.862 21 144.462 20.4333 143.329 19.3C142.195 18.1667 141.629 16.7667 141.629 15.1C141.629 13.4333 142.195 12.0333 143.329 10.9C144.462 9.76666 145.862 9.2 147.529 9.2C149.195 9.2 150.595 9.76666 151.729 10.9C152.862 12.0333 153.429 13.4333 153.429 15.1C153.429 16.7667 152.862 18.1667 151.729 19.3C150.595 20.4333 149.195 21 147.529 21ZM169.69 80L176.69 79V33.2L169.69 32.2V30.2H186.69V37.9C190.89 32.1667 195.624 29.3 200.89 29.3C203.424 29.3 205.657 29.9667 207.59 31.3C209.524 32.5667 210.49 34.4 210.49 36.8C210.49 38.5333 209.924 40 208.79 41.2C207.657 42.3333 206.157 42.9 204.29 42.9C202.157 42.9 200.424 42.0667 199.09 40.4C199.824 39.4667 200.19 38.4667 200.19 37.4C200.19 36.2667 199.79 35.3667 198.99 34.7C198.257 33.9667 197.257 33.6 195.99 33.6C194.59 33.6 193.157 34.2667 191.69 35.6C190.224 36.8667 188.557 38.8667 186.69 41.6V79L194.69 80V82H169.69V80ZM234.629 83C230.229 83 226.695 81.9 224.029 79.7C221.429 77.5 220.129 74 220.129 69.2V33.2L213.029 32.2V30.2H220.129V21.9L230.129 19.4V30.2H243.129V32.2L230.129 33.2V69C230.129 76.0667 232.662 79.6 237.729 79.6C238.795 79.6 239.795 79.4333 240.729 79.1C241.729 78.7667 242.495 78.4333 243.029 78.1C243.629 77.7667 243.995 77.5333 244.129 77.4L245.429 79C242.429 81.6667 238.829 83 234.629 83ZM265.096 83C260.83 83 257.33 81.9 254.596 79.7C251.863 77.4333 250.496 74.1 250.496 69.7C250.496 63.4333 253.13 59 258.396 56.4C263.663 53.7333 269.763 52.4 276.696 52.4H283.396V44.7C283.396 41.2333 282.996 38.5667 282.196 36.7C281.463 34.7667 280.296 33.4333 278.696 32.7C277.096 31.9 274.93 31.5 272.196 31.5C269.063 31.5 266.73 32.1333 265.196 33.4C263.663 34.6 262.896 36.2333 262.896 38.3C262.896 40.2333 263.83 41.5 265.696 42.1C265.696 43.7667 265.063 45.2333 263.796 46.5C262.53 47.7667 261.03 48.4 259.296 48.4C257.43 48.4 255.93 47.9 254.796 46.9C253.663 45.8333 253.096 44.2333 253.096 42.1C253.096 38.2333 255.03 35.1333 258.896 32.8C262.763 30.4667 267.596 29.3 273.396 29.3C286.73 29.3 293.396 35.1 293.396 46.7V75.3C293.396 76.7667 293.696 77.9 294.296 78.7C294.963 79.4333 295.896 79.8 297.096 79.8C298.23 79.8 299.13 79.4333 299.796 78.7C300.463 77.9 300.796 76.8333 300.796 75.5H302.896C302.896 77.8333 302.13 79.6667 300.596 81C299.13 82.3333 297.063 83 294.396 83C291.33 83 288.73 82.1333 286.596 80.4C284.53 78.6 283.463 75.8333 283.396 72.1C281.796 75.5 279.33 78.1667 275.996 80.1C272.73 82.0333 269.096 83 265.096 83ZM270.596 78.6C272.396 78.6 274.23 78.0667 276.096 77C278.03 75.9333 279.663 74.4 280.996 72.4C282.33 70.3333 283.13 67.8667 283.396 65V54.6H276.696C271.23 54.6 267.13 55.8333 264.396 58.3C261.73 60.7 260.396 64.1 260.396 68.5C260.396 72.1667 261.263 74.7667 262.996 76.3C264.73 77.8333 267.263 78.6 270.596 78.6ZM368.161 84C360.894 84 354.527 82.2333 349.061 78.7C343.594 75.1667 339.361 70.2333 336.361 63.9C333.427 57.5667 331.961 50.2667 331.961 42C331.961 33.7333 333.461 26.4333 336.461 20.1C339.527 13.7 343.827 8.76666 349.361 5.3C354.961 1.76666 361.394 -5.24521e-06 368.661 -5.24521e-06C371.527 -5.24521e-06 374.427 0.499994 377.361 1.49999C380.361 2.5 383.061 3.9 385.461 5.7L392.161 -5.24521e-06H394.261V24.8H392.161L385.961 9.29999C383.627 7.16666 380.894 5.46666 377.761 4.19999C374.694 2.93333 371.661 2.29999 368.661 2.29999C363.994 2.29999 359.861 3.5 356.261 5.9C352.727 8.3 349.961 11.8 347.961 16.4C345.961 21 344.961 26.4667 344.961 32.8V51.1C344.961 57.4333 345.927 62.9 347.861 67.5C349.794 72.1 352.494 75.6333 355.961 78.1C359.427 80.5 363.494 81.7 368.161 81.7C371.561 81.7 374.961 80.9667 378.361 79.5C381.761 77.9667 384.594 75.9333 386.861 73.4L392.661 57.3H394.761V83H392.661L385.461 77.9C383.061 79.8333 380.327 81.3333 377.261 82.4C374.194 83.4667 371.161 84 368.161 84ZM420.272 83C416.006 83 412.506 81.9 409.772 79.7C407.039 77.4333 405.672 74.1 405.672 69.7C405.672 63.4333 408.306 59 413.572 56.4C418.839 53.7333 424.939 52.4 431.872 52.4H438.572V44.7C438.572 41.2333 438.172 38.5667 437.372 36.7C436.639 34.7667 435.472 33.4333 433.872 32.7C432.272 31.9 430.106 31.5 427.372 31.5C424.239 31.5 421.906 32.1333 420.372 33.4C418.839 34.6 418.072 36.2333 418.072 38.3C418.072 40.2333 419.006 41.5 420.872 42.1C420.872 43.7667 420.239 45.2333 418.972 46.5C417.706 47.7667 416.206 48.4 414.472 48.4C412.606 48.4 411.106 47.9 409.972 46.9C408.839 45.8333 408.272 44.2333 408.272 42.1C408.272 38.2333 410.206 35.1333 414.072 32.8C417.939 30.4667 422.772 29.3 428.572 29.3C441.906 29.3 448.572 35.1 448.572 46.7V75.3C448.572 76.7667 448.872 77.9 449.472 78.7C450.139 79.4333 451.072 79.8 452.272 79.8C453.406 79.8 454.306 79.4333 454.972 78.7C455.639 77.9 455.972 76.8333 455.972 75.5H458.072C458.072 77.8333 457.306 79.6667 455.772 81C454.306 82.3333 452.239 83 449.572 83C446.506 83 443.906 82.1333 441.772 80.4C439.706 78.6 438.639 75.8333 438.572 72.1C436.972 75.5 434.506 78.1667 431.172 80.1C427.906 82.0333 424.272 83 420.272 83ZM425.772 78.6C427.572 78.6 429.406 78.0667 431.272 77C433.206 75.9333 434.839 74.4 436.172 72.4C437.506 70.3333 438.306 67.8667 438.572 65V54.6H431.872C426.406 54.6 422.306 55.8333 419.572 58.3C416.906 60.7 415.572 64.1 415.572 68.5C415.572 72.1667 416.439 74.7667 418.172 76.3C419.906 77.8333 422.439 78.6 425.772 78.6ZM460.511 80L467.511 79V33.2L460.511 32.2V30.2H477.511V37.9C481.711 32.1667 486.444 29.3 491.711 29.3C494.244 29.3 496.477 29.9667 498.411 31.3C500.344 32.5667 501.311 34.4 501.311 36.8C501.311 38.5333 500.744 40 499.611 41.2C498.477 42.3333 496.977 42.9 495.111 42.9C492.977 42.9 491.244 42.0667 489.911 40.4C490.644 39.4667 491.011 38.4667 491.011 37.4C491.011 36.2667 490.611 35.3667 489.811 34.7C489.077 33.9667 488.077 33.6 486.811 33.6C485.411 33.6 483.977 34.2667 482.511 35.6C481.044 36.8667 479.377 38.8667 477.511 41.6V79L485.511 80V82H460.511V80ZM531.772 83C526.839 83 522.372 81.9 518.372 79.7C514.372 77.4333 511.206 74.2667 508.872 70.2C506.539 66.1333 505.372 61.4333 505.372 56.1C505.372 50.7667 506.506 46.1 508.772 42.1C511.106 38.0333 514.206 34.9 518.072 32.7C522.006 30.4333 526.372 29.3 531.172 29.3C535.372 29.3 539.139 30.2333 542.472 32.1C545.806 33.9667 548.406 36.5667 550.272 39.9C552.139 43.1667 553.106 46.9333 553.172 51.2H516.372V61.1C516.372 66.9667 517.672 71.7333 520.272 75.4C522.939 79 526.772 80.8 531.772 80.8C536.372 80.8 540.439 79.5 543.972 76.9C547.506 74.3 549.672 70.9333 550.472 66.8H552.772C551.839 71.7333 549.472 75.6667 545.672 78.6C541.872 81.5333 537.239 83 531.772 83ZM542.172 48.7C542.172 42.9 541.272 38.6 539.472 35.8C537.672 32.9333 534.872 31.5 531.072 31.5C526.606 31.5 523.139 33.0667 520.672 36.2C518.206 39.3333 516.806 43.5 516.472 48.7H542.172Z" fill="#272343"/>
</svg>
